<svg viewBox="0 0 400 300" fill="none" xmlns="http://www.w3.org/2000/svg">
            <path class="anim-float" d="M50 150 C50 50 150 50 200 100 S350 250 200 280 S50 250 50 150Z" fill="#f43f5e" opacity="0.1"/>
            <rect x="220" y="180" width="120" height="80" rx="8" fill="#6366f1"/>
            <rect x="235" y="195" width="90" height="10" rx="2" fill="#334155" opacity="0.3"/>
            <path class="anim-bounce" d="M80 60 H160 V110 H100 L80 130 V60 Z" fill="#334155" opacity="0.8"/>
            <path class="anim-bounce" d="M180 100 H250 V140 H200 L180 155 V100 Z" fill="#f43f5e" opacity="0.6" style="animation-delay: -1.5s"/>
            <path d="M100 260 C100 220 120 200 150 200 H170 C190 200 210 220 210 260 V270 H100 V260 Z" fill="#6366f1"/>
            <circle cx="155" cy="170" r="25" fill="#6366f1"/>
          </svg>